<svg width="168" height="96" viewBox="0 0 168 96" fill="none" xmlns="http://www.w3.org/2000/svg" role="img" aria-labelledby="outfinityTitle outfinityDesc">
  <title id="outfinityTitle">Outfinity logo</title>
  <desc id="outfinityDesc">Minimal infinity symbol with a transparent background, black left loop, and white right loop on black.</desc>
  <defs>
    <clipPath id="outfinityLeftHalf">
      <rect x="12" y="12" width="72" height="72"/>
    </clipPath>
    <clipPath id="outfinityRightHalf">
      <rect x="84" y="12" width="72" height="72"/>
    </clipPath>
  </defs>
  <path d="M84 16H120C137.673 16 152 30.3269 152 48C152 65.6731 137.673 80 120 80H84V16Z" fill="#0d1111"/>
  <path d="M24 48C24 34.7452 34.7452 24 48 24C61.2548 24 69.6838 34.0215 84 48C98.3162 61.9785 106.745 72 120 72C133.255 72 144 61.2548 144 48C144 34.7452 133.255 24 120 24C106.745 24 98.3162 34.0215 84 48C69.6838 61.9785 61.2548 72 48 72C34.7452 72 24 61.2548 24 48Z" clip-path="url(#outfinityLeftHalf)" stroke="#0d1111" stroke-width="10" stroke-linecap="round" stroke-linejoin="round"/>
  <path d="M24 48C24 34.7452 34.7452 24 48 24C61.2548 24 69.6838 34.0215 84 48C98.3162 61.9785 106.745 72 120 72C133.255 72 144 61.2548 144 48C144 34.7452 133.255 24 120 24C106.745 24 98.3162 34.0215 84 48C69.6838 61.9785 61.2548 72 48 72C34.7452 72 24 61.2548 24 48Z" clip-path="url(#outfinityRightHalf)" stroke="#ffffff" stroke-width="10" stroke-linecap="round" stroke-linejoin="round"/>
</svg>
